# xmcd
#
# Track frame offsets:
# 150
# 14962
# 29100
# 41625
# 56437
# 72975
# 89550
# 104850
# 116137
# 135412
# 146512
# 164962
# 174862
# 188812
# 199237
# 210862
# 223237
# 242475
# 253387
# 271725
# 294862
#
# Disc length: 4109 seconds
#
#
# Revision: 5
# Processed by: cddbd v1.5.2PL0 Copyright (c) Steve Scherf et al.
# Submitted via: OrangeCD 6.0 
#
DISCID=51100b15
DTITLE=Various Artist - O Sister 2 - A Women's Bluegrass Collection
DYEAR=2002
DGENRE=Bluegrass
TTITLE0=Tall Pines
TTITLE1=It Rains Everywhere I Go
TTITLE2=I'll Stay Around
TTITLE3=I Wonder Where You Are Tonight
TTITLE4=Leaving The Land
TTITLE5=Pretending I Don't Care
TTITLE6=Don't Neglect the Rose
TTITLE7=Love Me or Leave Me ALone
TTITLE8=Hideaway
TTITLE9=Who's Crying For You Now
TTITLE10=Reason Enough
TTITLE11=Hey Lonesome
TTITLE12=Someday
TTITLE13=Montana Cowboy
TTITLE14=High on a Mountain
TTITLE15=Poor Ellen Smith
TTITLE16=Times Are Not What They Used to Be
TTITLE17=Dream of a Miner's Child
TTITLE18=Memories of You
TTITLE19=Willow
TTITLE20=Jewels
EXTD=
EXTT0=
EXTT1=
EXTT2=
EXTT3=
EXTT4=
EXTT5=
EXTT6=
EXTT7=
EXTT8=
EXTT9=
EXTT10=
EXTT11=
EXTT12=
EXTT13=
EXTT14=
EXTT15=
EXTT16=
EXTT17=
EXTT18=
EXTT19=
EXTT20=
PLAYORDER=
